HIERARCHY
ROOT Hips
{
    OFFSET 0.000000 0.000000 0.000000
    CHANNELS 6 Xposition Yposition Zposition Zrotation Xrotation Yrotation
    JOINT Spine
    {
        OFFSET -0.000000 7.236184 0.000000
        CHANNELS 3 Zrotation Xrotation Yrotation
        JOINT Spine1
        {
            OFFSET -0.000000 20.420147 0.000000
            CHANNELS 3 Zrotation Xrotation Yrotation
            JOINT Neck
            {
                OFFSET -0.000000 20.336288 1.848754
                CHANNELS 3 Zrotation Xrotation Yrotation
                JOINT Head
                {
                    OFFSET -0.000000 12.354461 -1.764923
                    CHANNELS 3 Zrotation Xrotation Yrotation
                    End Site
                    {
                        OFFSET -0.000000 22.061537 0.000000
                    }
                }
            }
            JOINT LeftShoulder
            {
                OFFSET 3.573296 18.396038 -0.314103
                CHANNELS 3 Zrotation Xrotation Yrotation
                JOINT LeftArm
                {
                    OFFSET 10.880760 0.000000 0.000000
                    CHANNELS 3 Zrotation Xrotation Yrotation
                    JOINT LeftForeArm
                    {
                        OFFSET 27.185530 0.000000 0.000000
                        CHANNELS 3 Zrotation Xrotation Yrotation
                        JOINT LeftHand
                        {
                            OFFSET 27.825975 0.000000 0.000000
                            CHANNELS 3 Zrotation Xrotation Yrotation
                            End Site
                            {
                                OFFSET 13.236923 0.000000 0.000000
                            }
                        }
                    }
                }
            }
            JOINT RightShoulder
            {
                OFFSET -3.474926 18.396038 -0.314103
                CHANNELS 3 Zrotation Xrotation Yrotation
                JOINT RightArm
                {
                    OFFSET -10.880760 0.000000 0.000000
                    CHANNELS 3 Zrotation Xrotation Yrotation
                    JOINT RightForeArm
                    {
                        OFFSET -27.185530 0.000000 0.000000
                        CHANNELS 3 Zrotation Xrotation Yrotation
                        JOINT RightHand
                        {
                            OFFSET -27.825975 0.000000 0.000000
                            CHANNELS 3 Zrotation Xrotation Yrotation
                            End Site
                            {
                                OFFSET -13.236923 0.000000 0.000000
                            }
                        }
                    }
                }
            }
        }
    }
    JOINT LeftUpLeg
    {
        OFFSET 8.824615 0.000000 0.000000
        CHANNELS 3 Zrotation Xrotation Yrotation
        JOINT LeftLeg
        {
            OFFSET -0.000000 -35.111282 0.000000
            CHANNELS 3 Zrotation Xrotation Yrotation
            JOINT LeftFoot
            {
                OFFSET -0.000000 -42.324711 0.000000
                CHANNELS 3 Zrotation Xrotation Yrotation
                JOINT LeftToeBase
                {
                    OFFSET -0.000000 -5.735999 13.236923
                    CHANNELS 3 Zrotation Xrotation Yrotation
                    End Site
                    {
                        OFFSET -0.000000 0.000000 3.529846
                    }
                }
            }
        }
    }
    JOINT RightUpLeg
    {
        OFFSET -8.824615 0.000000 0.000000
        CHANNELS 3 Zrotation Xrotation Yrotation
        JOINT RightLeg
        {
            OFFSET -0.000000 -35.111282 0.000000
            CHANNELS 3 Zrotation Xrotation Yrotation
            JOINT RightFoot
            {
                OFFSET -0.000000 -42.324711 0.000000
                CHANNELS 3 Zrotation Xrotation Yrotation
                JOINT RightToeBase
                {
                    OFFSET -0.000000 -5.735999 13.236923
                    CHANNELS 3 Zrotation Xrotation Yrotation
                    End Site
                    {
                        OFFSET -0.000000 0.000000 3.529846
                    }
                }
            }
        }
    }
}
MOTION
Frames:    8
Frame Time:    0.008333
16.979624    87.066544    95.883865    -6.922392    -5.396167    -177.676437    -0.799248    -10.691680    6.564776    -3.615139    -1.121906    6.604236    -1.641409    9.680392    4.593707    0.083935    -13.262370    4.899830    17.674101    -1.925140    -2.080872    -11.984956    -3.362056    -1.425312    3.509539    7.931572    2.875309    -6.184303    7.610807    4.360278    -17.658978    -1.405772    0.465214    5.806869    -10.590326    5.574039    -30.083256    2.464559    26.322226    -47.247856    5.009103    10.617367    13.589902    -26.125475    -11.733706    -4.695036    36.316830    23.945354    -10.699802    18.887257    -28.361713    -2.333984    -1.796556    2.595572    -10.874350    4.829863    -10.240541    1.501327    -2.660024    -9.915909    7.348848    -3.919278    -0.328954    -3.279440    1.626715    3.539025    
16.602200    86.978188    95.690651    -6.545613    -5.437209    -178.071472    -0.783318    -10.795428    6.252326    -3.116043    -1.515224    6.285193    -1.329930    9.830200    5.125037    -0.084165    -13.281090    5.388722    18.263100    -2.225418    -2.353140    -11.283625    -3.707623    -1.365985    3.536870    7.964768    2.948459    -7.858239    7.574601    4.405696    -17.945557    -1.234327    0.320495    5.578170    -9.795027    4.905112    -28.851248    3.407801    25.439386    -45.739872    5.537935    10.689102    13.684066    -24.278965    -11.486892    -4.056238    34.308525    23.166500    -10.848553    18.175686    -27.937981    -2.298681    -1.843945    2.556540    -10.818138    4.826509    -10.138733    1.560541    -2.715553    -9.927432    7.604463    -3.780401    -0.042402    -3.350302    1.534310    3.615933    
16.210388    86.889275    95.502792    -6.178566    -5.473163    -178.417419    -0.797474    -10.883697    5.924272    -2.590460    -1.888117    5.957626    -1.030088    9.962641    5.633580    -0.236605    -13.290944    5.859603    18.805933    -2.540794    -2.639462    -10.602295    -4.017279    -1.351986    3.605817    7.961250    2.985093    -9.520884    7.501183    4.444863    -18.217073    -1.031457    0.164194    5.395648    -9.116415    4.253437    -27.659031    4.284772    24.592810    -43.912270    6.116509    10.667768    13.743273    -22.490532    -11.274191    -3.475573    32.325123    22.427158    -11.004372    17.377460    -27.472536    -2.255193    -1.928830    2.508574    -10.785751    4.808067    -10.080865    1.623077    -2.712858    -9.902092    7.872036    -3.648110    0.201556    -3.413015    1.423619    3.684157    
15.799695    86.800156    95.318733    -5.821451    -5.501279    -178.715561    -0.847617    -10.954191    5.575641    -2.031914    -2.243482    5.617203    -0.741009    10.075506    6.124643    -0.371197    -13.289031    6.318348    19.304873    -2.875340    -2.938219    -9.935060    -4.299430    -1.387203    3.727425    7.916202    2.979071    -11.181160    7.385932    4.473408    -18.475559    -0.797433    -0.009441    5.254729    -8.554943    3.613871    -26.495504    5.097862    23.773741    -41.715855    6.743356    10.539480    13.766397    -20.742142    -11.091515    -2.942390    30.354439    21.719292    -11.167277    16.484865    -26.955370    -2.201751    -2.055276    2.449708    -10.780554    4.775500    -10.072617    1.688114    -2.649113    -9.842409    8.158071    -3.519497    0.413757    -3.467711    1.296329    3.743828    
15.371919    86.712532    95.139870    -5.479641    -5.518353    -178.962891    -0.938428    -11.002760    5.207157    -1.442896    -2.580039    5.265119    -0.464660    10.167539    6.595659    -0.486056    -13.275149    6.762755    19.754097    -3.225334    -3.244179    -9.286874    -4.559376    -1.475393    3.913036    7.825304    2.923609    -12.818887    7.226412    4.486408    -18.717894    -0.535301    -0.202730    5.152712    -8.126699    2.992910    -25.365681    5.840371    22.986698    -39.141907    7.406649    10.292356    13.752783    -19.043940    -10.935542    -2.455645    28.415436    21.045475    -11.335117    15.505795    -26.385029    -2.137003    -2.219990    2.378405    -10.806175    4.729518    -10.117389    1.753746    -2.521086    -9.750256    8.463466    -3.392974    0.598296    -3.514178    1.155735    3.794707    
14.928171    86.627777    94.967010    -5.156408    -5.522204    -179.159286    -1.072170    -11.026753    4.819587    -0.826451    -2.897978    4.902257    -0.202054    10.238263    7.045663    -0.578233    -13.248467    7.192453    20.150883    -3.586301    -3.553436    -8.661070    -4.804640    -1.619156    4.175285    7.685791    2.813133    -14.415594    7.022035    4.478965    -18.940971    -0.248703    -0.417177    5.084847    -7.848876    2.395751    -24.267586    6.514390    22.233093    -36.202065    8.094031    9.918447    13.703949    -17.400949    -10.800563    -2.012924    26.520025    20.407133    -11.504900    14.452516    -25.764391    -2.059637    -2.412656    2.293132    -10.865339    4.670012    -10.214619    1.818817    -2.326434    -9.626978    8.787709    -3.265457    0.758317    -3.551390    1.003537    3.835669    
14.464720    86.546066    94.799225    -4.850126    -5.512640    -179.307480    -1.248299    -11.026011    4.409895    -0.184362    -3.200312    4.525315    0.053882    10.288388    7.479298    -0.649136    -13.208475    7.611347    20.501055    -3.957820    -3.865517    -8.055558    -5.044283    -1.821762    4.530283    7.493964    2.640753    -15.965482    6.771451    4.445457    -19.140558    0.060088    -0.655958    5.044490    -7.733338    1.821330    -23.185986    7.131702    21.504953    -32.898201    8.797767    9.405850    13.622497    -15.801903    -10.678711    -1.607979    24.657940    19.800749    -11.673171    13.333318    -25.097612    -1.968284    -2.619851    2.192283    -10.960694    4.594044    -10.361742    1.883469    -2.060384    -9.470665    9.132455    -3.131961    0.895151    -3.576833    0.836131    3.864017    
13.986474    86.468964    94.638954    -4.564003    -5.490971    -179.407455    -1.465855    -11.001059    3.983093    0.479634    -3.486798    4.138927    0.294295    10.320888    7.891662    -0.693137    -13.155996    8.016095    20.792830    -4.331310    -4.178463    -7.476488    -5.281946    -2.080668    4.989935    7.249955    2.402122    -17.429298    6.479259    4.379363    -19.317314    0.385864    -0.917192    5.029873    -7.785487    1.277689    -22.130331    7.688083    20.805704    -29.314289    9.489054    8.753427    13.513659    -14.268189    -10.564962    -1.243890    22.853571    19.236900    -11.831219    12.185095    -24.409246    -1.864624    -2.826721    2.077643    -11.092854    4.497976    -10.551682    1.946986    -1.721582    -9.281941    9.492966    -2.989666    1.005891    -3.587249    0.652209    3.876233    
